<svg aria-hidden="true" style="position: absolute; width: 0; height: 0; overflow: hidden;" version="1.1" xmlns="http://www.w3.org/2000/svg" xmlns:xlink="http://www.w3.org/1999/xlink">
<defs>
<symbol id="icon-pause-24px" viewBox="0 0 24 24">
<path d="M8 19c1.1 0 2-0.9 2-2v-10c0-1.1-0.9-2-2-2s-2 0.9-2 2v10c0 1.1 0.9 2 2 2zM14 7v10c0 1.1 0.9 2 2 2s2-0.9 2-2v-10c0-1.1-0.9-2-2-2s-2 0.9-2 2z"></path>
</symbol>
<symbol id="icon-play_arrow-24px" viewBox="0 0 24 24">
<path d="M8 6.82v10.36c0 0.79 0.87 1.27 1.54 0.84l8.14-5.18c0.62-0.39 0.62-1.29 0-1.69l-8.14-5.17c-0.67-0.43-1.54 0.050-1.54 0.84z"></path>
</symbol>
<symbol id="icon-repeat_one-24px" viewBox="0 0 24 24">
<path d="M7 7h10v1.79c0 0.45 0.54 0.67 0.85 0.35l2.79-2.79c0.2-0.2 0.2-0.51 0-0.71l-2.79-2.79c-0.31-0.31-0.85-0.090-0.85 0.36v1.79h-11c-0.55 0-1 0.45-1 1v4c0 0.55 0.45 1 1 1s1-0.45 1-1v-3zM17 17h-10v-1.79c0-0.45-0.54-0.67-0.85-0.35l-2.79 2.79c-0.2 0.2-0.2 0.51 0 0.71l2.79 2.79c0.31 0.31 0.85 0.090 0.85-0.36v-1.79h11c0.55 0 1-0.45 1-1v-4c0-0.55-0.45-1-1-1s-1 0.45-1 1v3zM13 14.25v-4.44c0-0.45-0.36-0.81-0.81-0.81-0.13 0-0.25 0.030-0.36 0.090l-1.49 0.74c-0.21 0.1-0.34 0.32-0.34 0.55 0 0.34 0.28 0.62 0.62 0.62h0.88v3.25c0 0.41 0.34 0.75 0.75 0.75s0.75-0.34 0.75-0.75z"></path>
</symbol>
<symbol id="icon-repeat-24px" viewBox="0 0 24 24">
<path d="M7 7h10v1.79c0 0.45 0.54 0.67 0.85 0.35l2.79-2.79c0.2-0.2 0.2-0.51 0-0.71l-2.79-2.79c-0.31-0.31-0.85-0.090-0.85 0.36v1.79h-11c-0.55 0-1 0.45-1 1v4c0 0.55 0.45 1 1 1s1-0.45 1-1v-3zM17 17h-10v-1.79c0-0.45-0.54-0.67-0.85-0.35l-2.79 2.79c-0.2 0.2-0.2 0.51 0 0.71l2.79 2.79c0.31 0.31 0.85 0.090 0.85-0.36v-1.79h11c0.55 0 1-0.45 1-1v-4c0-0.55-0.45-1-1-1s-1 0.45-1 1v3z"></path>
</symbol>
<symbol id="icon-shuffle-24px" viewBox="0 0 24 24">
<path d="M10.59 9.17l-4.47-4.47c-0.39-0.39-1.020-0.39-1.41 0s-0.39 1.020 0 1.41l4.46 4.46 1.42-1.4zM15.35 4.85l1.19 1.19-11.84 11.84c-0.39 0.39-0.39 1.020 0 1.41s1.020 0.39 1.41 0l11.85-11.83 1.19 1.19c0.31 0.31 0.85 0.090 0.85-0.36v-3.79c0-0.28-0.22-0.5-0.5-0.5h-3.79c-0.45 0-0.67 0.54-0.36 0.85zM14.83 13.41l-1.41 1.41 3.13 3.13-1.2 1.2c-0.31 0.31-0.090 0.85 0.36 0.85h3.79c0.28 0 0.5-0.22 0.5-0.5v-3.79c0-0.45-0.54-0.67-0.85-0.35l-1.19 1.19-3.13-3.14z"></path>
</symbol>
<symbol id="icon-skip_next-24px" viewBox="0 0 24 24">
<path d="M7.58 16.89l5.77-4.070c0.56-0.4 0.56-1.24 0-1.63l-5.77-4.080c-0.67-0.46-1.58 0.010-1.58 0.82v8.14c0 0.81 0.91 1.28 1.58 0.82zM16 7v10c0 0.55 0.45 1 1 1s1-0.45 1-1v-10c0-0.55-0.45-1-1-1s-1 0.45-1 1z"></path>
</symbol>
</defs>
</svg>
